<?xml version="1.0" encoding="UTF-8" standalone="no"?>
<!DOCTYPE svg PUBLIC "-//W3C//DTD SVG 1.1//EN" "http://www.w3.org/Graphics/SVG/1.1/DTD/svg11.dtd">
<svg width="100%" height="100%" viewBox="0 0 32 32" version="1.1" xmlns="http://www.w3.org/2000/svg" xmlns:xlink="http://www.w3.org/1999/xlink" xml:space="preserve" xmlns:serif="http://www.serif.com/" style="fill-rule:evenodd;clip-rule:evenodd;stroke-linejoin:round;stroke-miterlimit:2;">
    <g id="binspired" transform="matrix(0.025,0,0,0.025,0,0)">
        <path d="M1280,0L0,0L0,1280L1280,1280L1280,0ZM805.187,792.203L939.016,792.203L939.016,911.512L805.187,911.512L805.187,792.203ZM333.333,911.512L333.333,368.485L587.259,368.485C692.04,368.485 727.213,422.021 727.213,495.445L727.213,522.213C727.213,596.4 708.856,617.053 675.203,634.64C710.379,649.171 738.693,671.344 738.693,752.421L738.693,791.429C738.693,864.075 695.861,911.512 581.896,911.512L333.333,911.512ZM556.669,796.032C586.483,796.032 597.968,786.083 597.968,738.648C597.968,699.643 586.483,679.76 556.669,679.76L469.472,679.76L469.472,796.032L556.669,796.032ZM838.837,749.36C812.061,615.52 799.061,525.275 799.061,412.843C799.061,394.485 800.605,378.429 805.187,368.485L942.077,368.485C945.141,380.723 946.667,394.485 946.667,412.843C946.667,525.275 933.669,615.52 906.904,749.36L838.837,749.36ZM556.669,586.453C584.96,586.453 597.968,569.627 597.968,535.213C597.968,500.795 584.96,483.2 556.669,483.2L469.472,483.2L469.472,586.453L556.669,586.453Z" style="fill:rgb(23,23,23);"/>
    </g>
</svg>
